#!OML:ASF E:\motion texture\Top Level 1\Subject 1\Session 1\male.ASF
:FULLY-SPECIFIED
:DEGREES
195
root 5.18696 17.7448 4.5371 271.724 -89.0631 -268.066
lowerback 0.904477 -4.33318 -3.09712
upperback -2.09151 -5.82502 2.57512
thorax -2.08366 -2.84607 4.51337
lowerneck -21.3815 -2.97801 -4.90651
upperneck 15.269 -3.85901 6.26577
head 8.48401 -1.45598 2.40711
rclavicle -9.13167e-016 -1.27222e-014
rhumerus -46.6256 -2.0446 -77.1698
rradius 47.8901
rwrist 1.17412
rhand -9.96693 -9.70474
rfingers 7.12502
rthumb 16.0155 -39.0628
lclavicle -9.13167e-016 -1.27222e-014
lhumerus -26.7734 -22.1435 100.587
lradius 66.6941
lwrist -2.26654
lhand -10.7317 4.7525
lfingers 7.12502
lthumb 15.2789 34.1682
rfemur -48.7446 -6.28082 19.8222
rtibia 51.4645
rfoot 382.91 -5.68969
rtoes 17.2748
lfemur 9.98828 -6.49286 -22.7273
ltibia 23.0289
lfoot 351.651 -3.02832
ltoes -27.1545
196
root 4.97949 17.7216 4.49059 296.066 -89.1321 -292.249
lowerback 0.343227 -4.34417 -3.09634
upperback -2.17249 -5.8292 2.62929
thorax -1.8468 -2.85407 4.52352
lowerneck -21.2228 -3.02342 -4.96563
upperneck 15.2825 -3.90131 6.22127
head 8.46397 -1.48691 2.39648
rclavicle -5.36874e-015 -2.38542e-014
rhumerus -46.3124 -1.70875 -77.7799
rradius 48.5268
rwrist 1.02702
rhand -10.1532 -9.79457
rfingers 7.12502
rthumb 15.8361 -39.1669
lclavicle -5.36874e-015 -2.38542e-014
lhumerus -27.8055 -21.6572 100.678
lradius 65.7237
lwrist -2.30424
lhand -10.9104 5.25861
lfingers 7.12502
lthumb 15.1068 34.6873
rfemur -45.9945 -5.6558 19.5773
rtibia 49.4591
rfoot 378.958 -4.23704
rtoes 13.1368
lfemur 9.84003 -6.41746 -22.1651
ltibia 23.9769
lfoot 352.388 -3.71495
ltoes -28.0522
197
root 4.77157 17.6978 4.44247 319.458 -89.0506 -315.493
lowerback -0.194503 -4.33968 -3.0982
upperback -2.27185 -5.81386 2.68199
thorax -1.64415 -2.85115 4.53711
lowerneck -21.0504 -3.07386 -5.04442
upperneck 15.3319 -3.94858 6.18145
head 8.45455 -1.52095 2.39039
rclavicle 1.53748e-015 1.82882e-014
rhumerus -46.0014 -1.33754 -78.4457
rradius 49.1993
rwrist 0.801895
rhand -10.3918 -9.90354
rfingers 7.12502
rthumb 15.6063 -39.294
lclavicle 1.53748e-015 1.82882e-014
lhumerus -28.8523 -21.1222 100.735
lradius 64.6406
lwrist -2.28476
lhand -11.0641 5.80477
lfingers 7.12502
lthumb 14.9587 35.2446
rfemur -43.3814 -5.06188 19.4885
rtibia 47.7061
rfoot 374.406 -2.75555
rtoes 10.1481
lfemur 9.48221 -6.26199 -21.5174
ltibia 25.2277
lfoot 353.374 -4.53263
ltoes -28.7975
198
root 4.5655 17.6744 4.39378 337.584 -88.9005 -333.493
lowerback -0.67885 -4.30712 -3.05698
upperback -2.37763 -5.76242 2.73723
thorax -1.48568 -2.82964 4.53541
lowerneck -20.8925 -3.13284 -5.14227
upperneck 15.4167 -4.00529 6.14989
head 8.46075 -1.55936 2.38918
rclavicle 3.7328e-014 -2.38542e-015
rhumerus -45.6599 -0.938123 -79.1708
rradius 49.9053
rwrist 0.5017
rhand -10.656 -10.0282
rfingers 7.12502
rthumb 15.3519 -39.4383
lclavicle 3.7328e-014 -2.38542e-015
lhumerus -29.8698 -20.54 100.734
lradius 63.4278
lwrist -2.23237
lhand -11.196 6.38628
lfingers 7.12502
lthumb 14.8317 35.8355
rfemur -40.9568 -4.49237 19.5799
rtibia 46.1145
rfoot 369.864 -1.54544
rtoes 8.99238
lfemur 8.89678 -6.02217 -20.7577
ltibia 26.8032
lfoot 354.714 -5.46808
ltoes -29.2873
199
root 4.36432 17.6521 4.34628 353.089 -88.7744 -348.901
lowerback -1.08264 -4.2272 -2.91274
upperback -2.48615 -5.65019 2.80215
thorax -1.38993 -2.77773 4.49546
lowerneck -20.7379 -3.20038 -5.24898
upperneck 15.5155 -4.07257 6.12014
head 8.47321 -1.60307 2.38873
rclavicle 3.47997e-014 1.59028e-015
rhumerus -45.2666 -0.504398 -79.9561
rradius 50.6517
rwrist 0.145334
rhand -10.9364 -10.1554
rfingers 7.12502
rthumb 15.0818 -39.586
lclavicle 3.47997e-014 1.59028e-015
lhumerus -30.8359 -19.9149 100.662
lradius 62.0792
lwrist -2.16481
lhand -11.3109 7.00367
lfingers 7.12502
lthumb 14.7209 36.461
rfemur -38.7714 -3.92178 19.8803
rtibia 44.6063
rfoot 365.955 -0.835433
rtoes 9.82922
lfemur 8.06331 -5.68018 -19.8565
ltibia 28.7131
lfoot 356.533 -6.47931
ltoes -29.3335
